<?xml version="1.0" encoding="utf-8"?>
<!-- Generator: Adobe Illustrator 16.0.0, SVG Export Plug-In . SVG Version: 6.00 Build 0)  -->
<!DOCTYPE svg PUBLIC "-//W3C//DTD SVG 1.1//EN" "http://www.w3.org/Graphics/SVG/1.1/DTD/svg11.dtd">
<svg version="1.1" id="Layer_1" xmlns="http://www.w3.org/2000/svg" xmlns:xlink="http://www.w3.org/1999/xlink" x="0px" y="0px"
	 width="86.901px" height="188.259px" viewBox="0 0 86.901 188.259" enable-background="new 0 0 86.901 188.259"
	 xml:space="preserve">
<g>
	<g>
		<g>
			<path d="M85.462,142.605c5.08,6.775-6.753,12.37-10.964,12.583C80.174,152.971,87.905,148.802,85.462,142.605z"/>
			<path d="M92.53,130.849c0,6.301-11.691,9.963-16.12,7.232c2.843,1.748,6.437,2.629,9.053,4.523
				c-1.528-1.695-3.362-2.9-5.501-3.614c21.309,0,13.914-30.474,13.914-44.76c-0.448,0-0.897,0-1.346,0
				C92.53,106.437,92.53,118.643,92.53,130.849z"/>
			<path d="M86.322,121.235c5.228,0,11.291,1.562,15.809,4.153c5.966,3.422,4.511,11.476,12.211,12.847
				c-6.413-5.912,26.339-3.183,10.554,3.616c-4.565,1.967-10.052,1.807-14.732,0.365c-0.047-0.015-8.396-3.942-6.011-4.614
				c2.413-0.681,1.143,3.887-3.144,3.887c-8.576,0-1.953-5.19-1.953-4.981c0,0.528-11.134,9.013-1.369,0.572
				c-4.052,4.829,9.529,5.228,7.103,1.226c2.804,6.332,17.61,5.864,21.796,1.87c4.183-3.991-4.164-5.689-6.269-5.689
				c-8.666,0-2.887,4.949-2.086,4.35c-7.522,5.637-11.684-9.496-14.714-11.936c-1.937-1.559-19.117-6.514-19.117-5.544
				c0-4.673-2.159-27.185,2.007-27.125C86.377,103.232,86.35,112.234,86.322,121.235z"/>
			<path d="M93.642,140.172c4.887,7.847-18.469,9.114-22.519,4.783c-7.864,5.691,17.253,11.022,22.732,7.781
				c-0.478,0.287-4.751-0.397-4.751-1.699c0-3.668,12.82-3.193,12.82,1.108c0,5.035-12.799,5.126-15.886,4.646
				c8.637,1.275-4.716,8.561-7.408,1.957c-2.249,14.026-36.435-1.354-19.557-5.297c2.482-0.579,15.523-1.927,15.523,2.773
				c0,4.376-12.259,4.885-12.259,1.959c0-2.078,7.605-0.746,3.976,2.141c-3.135,2.492-7.76,3.569-11.537,4.626
				c-3.914,1.095-7.771,2.388-11.569,3.833c-5.815,2.212-9.649-1.414-15.811-2.324c9.797-5.561,20.978-7.476,31.765-10.175
				c3.271-0.818,25.807-6.389,18.131-13.198c5.664,0.618,11.586-0.45,16.773-2.778c-0.822,0.162-20.952,4.299-20.952,1.039
				c0,2.152,6.761,1.789,4.337,6.189c-2.312,4.194-9.415,5.814-13.576,7.025c-12.995,3.783-26.495,5.572-38.472,12.368
				c4.06,0.533,9.881,1.465,13.029,4.435c5.669-2.618,11.611-4.687,17.622-6.366c3.643-1.021,8.252-2.069,11.181-4.624
				c3.81-3.323-6.223-5.366-6.223-2.05c0,3.881,14.35,2.731,14.35-2.052c0-6.331-17.121-3.479-20.145-1.993
				c-9.989,4.912,7.37,9.893,10.951,9.893c3.37,0,7.009-0.375,10.083-1.887c0.246-0.121,5.524-4.057,2.407-4.362
				c0.023,0.002,4.449,5.425,9.744,2.88c6.063-2.914-3.538-5.083-3.538-4.105c0,1.799,21.941,0.433,17.468-5.764
				c-5.523-7.651-19.396,2.273-11.134,2.273c-3.55,0.687-23.844,0.707-20.382-6.768C75.288,148.388,101.312,147.144,93.642,140.172z
				"/>
			<path d="M77.664,94.231c0,13.992,0,27.984,0,41.977c6.195-0.843,11.861,1.018,16.689,3.681
				c-3.162-4.062-12.503-2.135-12.503-6.335c0-5.785,0-11.571,0-17.356C81.85,111.442,85.494,91.972,77.664,94.231z"/>
			<path d="M-9.739,131.503c0,6.442,8.054,7.958,12.974,7.958c-3.239,1.334-5.238,4.329-4.199,7.829
				c0.318,0.033,0.636,0.065,0.954,0.099c-1.496-4.745,2.217-7.053,6.005-8.612c-14.204,0-14.434-6.558-14.434-17.885
				c0-8.888,0-17.774,0-26.661c-0.433,0-0.867,0-1.3,0C-9.739,106.655-9.739,119.08-9.739,131.503z"/>
			<path d="M-0.964,147.291c3.472,10.737,23.319,12.361,32.298,14.04c3.159,0.591,29.959,5.852,19.918,12.549
				c-3.897,2.6-6.477,4.042-10.343,2.407c-3.606-1.524-12.439-4.167-5.624-8.443c11.566-7.258,26.886-7.43,39.534-12.114
				c-10.668,0.323-27.507,5.788-37.78,10.662c-4.032,1.913-8.39,5.238-2.629,8.448c6.953,3.875,8.072,4.026,14.833,0.719
				c16.132-7.892-11.292-13.784-17.003-14.812C19.905,158.528,7.501,156.46-0.964,147.291z"/>
			<path d="M5.534,94.231c0,14.204,0,28.409,0,42.613c-3.788-1.921-17.796,0.555-12.853,6.998c4.217,5.496,18.112,4.72,22.507,0.217
				c6.351,11.924-21.23,7.39-21.319,7.53c0.44-0.695,3.136,0.211,3.136-1.376c0-3.64-9.142-1.749-10.552-0.143
				c-4.684,5.335,10.886,5.239,12.262,5.023c-4.73,3.259,5.393,4.192,8.123,1.927c-4.814,10.468,31.014,7.166,24.096-0.637
				c-3.498-3.944-13.899-4.586-17.568-0.549c-3.913,4.304,10.138,6.943,10.138,3.149c0-1.984-4.753-1.108-4.753,0.954
				c0,3.19,10.885,3.839,12.836,4.103c5.143,0.698,10.643,1.955,15.121,4.7c4.384,2.688,8.457-0.1,13.461-1.534
				c-4.77-3.194-59.797-15.048-52.438-24.115c-4.316,0.581-8.702,0.305-12.905-0.858c-0.925-0.255-11.034-5.925-8.894-6.021
				c3.282-0.148-1.238,4.121-3.283,4.121c0.169,0-6.86-2.849-3.55-2.975c3.088-0.118-5.386,4.314-5.811,4.396
				c-3.963,0.758-11.051,1.122-14.172-2.193c-6.902-7.332,17.813-5.496,12.398-2.151c7.244-1.415,7.05-8.286,12.087-12.361
				c4.381-3.545,13.533-1.684,13.533-6.981c0-5.646,0-11.293,0-16.939c0,0.014-0.01-9.788,1.804-6.896c3.068,4.892,0,20.66,0,26.654
				c0-1.655-13.62,3.178-15.324,5.322c-2.123,2.672-2.939,6.157-5.396,8.585c-1.222,1.208-9.943,3.451-9.694,2.936
				c0.873-0.243,1.562-0.773,2.067-1.591c0-3.721-13.936-1.677-9.967,3.178c3.458,4.229,15.613,3.549,18.499-1.198
				c0,2.872,7.478,2.45,7.204-0.99c4.505,6.324,17.266,5.966,23.803,4.857c-10.925,5.448,13.066,13.18,15.591,13.794
				c12.3,2.992,26.16,3.807,36.819,11.296c-4.804,1.194-9.555,2.83-14.2,4.525c-4.152-4.271-11.088-6.075-16.754-6.991
				c-4.132-0.667-10.37-0.924-13.698-3.807c-3.464-3.002,6.546-5.331,6.546-1.723c0,5.022-18.279,0.66-12.349-3.884
				c3.74-2.866,20.575-4.266,20.575,3.064c0,7.289-16.557,5.853-20.465,4.932c-2.171-0.511-5.201-1.423-6.582-3.389
				c-1.714-2.439,2.422-3.986,2.422-2.774c0,2.88-9.193,1.925-10.204,1.544c-4.158-1.567,0.373-4.955,2.109-3.898
				c-1.625-0.988-15.964,4.04-15.964-3.021c0-8.02,19.079-1.778,12.566,0.471c3.187,0.562,21.396,1.004,17.471-6.483
				c-3.413,1.638-29.664,3.664-22.862-6.209c5.802-8.421,10.449,0.737,10.449-10.831c0-8.404,0-16.808,0-25.211
				C1.601,99.378-0.586,92.513,5.534,94.231z"/>
		</g>
	</g>
	<g>
		<g>
			<path d="M85.462,45.654c5.08-6.775-6.755-12.372-10.964-12.583C80.173,35.288,87.905,39.457,85.462,45.654z"/>
			<path d="M92.53,57.411c0-6.303-11.688-9.958-16.12-7.232c2.837-1.752,6.438-2.631,9.053-4.524
				c-1.528,1.695-3.362,2.9-5.501,3.616c21.31,0,13.914,30.472,13.914,44.76c-0.448,0-0.897,0-1.346,0
				C92.53,81.824,92.53,69.617,92.53,57.411z"/>
			<path d="M86.322,67.026c5.229,0,11.291-1.563,15.809-4.155c5.965-3.422,4.511-11.475,12.211-12.846
				c-6.413,5.913,26.338,3.183,10.554-3.617c-4.565-1.966-10.052-1.806-14.732-0.365c-0.047,0.014-8.398,3.94-6.011,4.615
				c2.406,0.681,1.15-3.887-3.144-3.887c-8.576,0-1.953,5.191-1.953,4.981c0-0.527-11.133-9.015-1.369-0.572
				c-4.052-4.831,9.529-5.228,7.103-1.226c2.806-6.332,17.609-5.866,21.796-1.871c4.183,3.991-4.164,5.691-6.269,5.691
				c-8.665,0-2.888-4.952-2.086-4.351c-7.522-5.636-11.684,9.498-14.714,11.936c-1.937,1.559-19.117,6.514-19.117,5.545
				c0,4.672-2.159,27.184,2.007,27.125C86.377,85.029,86.35,76.027,86.322,67.026z"/>
			<path d="M93.642,48.088c4.882-7.854-18.471-9.114-22.519-4.783c-7.87-5.709,17.26-11.017,22.732-7.783
				c-0.478-0.287-4.751,0.397-4.751,1.698c0,3.669,12.82,3.194,12.82-1.108c0-5.035-12.799-5.126-15.886-4.645
				c8.637-1.279-4.717-8.557-7.408-1.957c-2.25-14.029-36.434,1.355-19.557,5.296c2.482,0.58,15.523,1.927,15.523-2.773
				c0-4.375-12.259-4.886-12.259-1.957c0,2.075,7.606,0.745,3.976-2.142c-3.135-2.492-7.76-3.57-11.537-4.626
				c-3.914-1.095-7.771-2.388-11.569-3.833c-5.814-2.212-9.65,1.412-15.811,2.324c9.797,5.561,20.978,7.475,31.765,10.174
				c3.271,0.818,25.806,6.39,18.131,13.199c5.664-0.618,11.585,0.451,16.773,2.778c-0.819-0.161-20.952-4.297-20.952-1.038
				c0-2.153,6.761-1.789,4.337-6.188c-2.312-4.196-9.415-5.815-13.576-7.027c-12.995-3.784-26.495-5.572-38.472-12.369
				c4.06-0.533,9.881-1.463,13.029-4.434c5.669,2.618,11.611,4.687,17.622,6.367c3.643,1.02,8.252,2.068,11.181,4.623
				c3.811,3.324-6.223,5.368-6.223,2.051c0-3.882,14.35-2.732,14.35,2.052c0,6.33-17.121,3.479-20.145,1.993
				c-9.989-4.911,7.371-9.892,10.951-9.892c3.37,0,7.009,0.375,10.083,1.887c0.246,0.121,5.524,4.057,2.407,4.362
				c0.022-0.002,4.449-5.424,9.744-2.879c6.062,2.913-3.538,5.083-3.538,4.105c0-1.8,21.941-0.431,17.468,5.763
				c-5.525,7.652-19.396-2.273-11.134-2.273c-3.55-0.686-23.844-0.707-20.382,6.768C75.288,39.871,101.312,41.113,93.642,48.088z"/>
			<path d="M77.664,94.03c0-13.992,0-27.985,0-41.977c6.194,0.843,11.861-1.016,16.689-3.681
				c-3.162,4.062-12.503,2.133-12.503,6.334c0,5.786,0,11.571,0,17.357C81.85,76.818,85.494,96.289,77.664,94.03z"/>
			<path d="M-9.739,56.757c0-6.442,8.054-7.958,12.974-7.958c-3.237-1.333-5.24-4.33-4.199-7.829
				c0.318-0.033,0.636-0.066,0.954-0.099c-1.497,4.745,2.217,7.054,6.005,8.612c-14.204,0-14.434,6.559-14.434,17.886
				c0,8.887,0,17.774,0,26.661c-0.433,0-0.867,0-1.3,0C-9.739,81.605-9.739,69.181-9.739,56.757z"/>
			<path d="M-0.964,40.97c3.472-10.738,23.319-12.362,32.298-14.041c3.159-0.591,29.959-5.852,19.918-12.549
				c-3.897-2.599-6.477-4.042-10.343-2.408c-3.606,1.524-12.439,4.167-5.624,8.443c11.567,7.259,26.886,7.427,39.534,12.115
				c-10.662-0.316-27.511-5.791-37.78-10.663c-4.032-1.913-8.39-5.237-2.629-8.447c6.953-3.874,8.072-4.026,14.833-0.719
				c16.132,7.892-11.292,13.785-17.003,14.812C19.906,29.73,7.5,31.798-0.964,40.97z"/>
			<path d="M5.534,94.03c0-14.205,0-28.41,0-42.614c-3.788,1.921-17.797-0.555-12.853-6.999c4.218-5.497,18.111-4.72,22.507-0.216
				c6.351-11.924-21.229-7.389-21.319-7.531c0.44,0.695,3.136-0.211,3.136,1.376c0,3.639-9.142,1.749-10.552,0.143
				c-4.683-5.335,10.886-5.239,12.262-5.023c-4.73-3.277,5.4-4.186,8.123-1.928c-4.814-10.466,31.014-7.167,24.096,0.637
				c-3.498,3.945-13.899,4.585-17.568,0.549c-3.913-4.303,10.138-6.943,10.138-3.149c0,1.984-4.753,1.108-4.753-0.955
				c0-3.189,10.886-3.839,12.836-4.104c5.143-0.697,10.643-1.954,15.121-4.699c4.385-2.688,8.456,0.102,13.461,1.534
				C55.396,24.248,0.373,36.095,7.73,45.167c-4.316-0.582-8.701-0.305-12.905,0.858c-0.927,0.256-11.03,5.926-8.894,6.021
				c3.287,0.146-1.245-4.12-3.283-4.12c0.169,0-6.86,2.848-3.55,2.974c3.088,0.118-5.386-4.314-5.811-4.396
				c-3.963-0.757-11.051-1.122-14.172,2.194c-6.906,7.336,17.815,5.485,12.398,2.151c7.244,1.417,7.05,8.286,12.087,12.361
				c4.381,3.545,13.533,1.684,13.533,6.981c0,5.646,0,11.293,0,16.939c0-0.013-0.009,9.789,1.804,6.897
				c3.068-4.892,0-20.66,0-26.654c0,1.655-13.62-3.178-15.324-5.323c-2.123-2.672-2.939-6.158-5.396-8.586
				c-1.222-1.208-9.942-3.449-9.694-2.936c0.873,0.243,1.562,0.773,2.067,1.591c0,3.72-13.935,1.676-9.967-3.178
				c3.458-4.229,15.613-3.55,18.499,1.199c0-2.87,7.478-2.449,7.204,0.99c4.504-6.325,17.266-5.966,23.803-4.858
				c-10.927-5.447,13.067-13.18,15.591-13.794c12.3-2.992,26.16-3.806,36.819-11.295c-4.804-1.196-9.555-2.831-14.2-4.527
				c-4.151,4.273-11.088,6.076-16.754,6.992c-4.132,0.667-10.37,0.924-13.698,3.808c-3.464,3.001,6.546,5.331,6.546,1.722
				c0-5.022-18.279-0.66-12.349,3.885c3.74,2.866,20.575,4.265,20.575-3.065c0-7.29-16.556-5.854-20.465-4.933
				c-2.171,0.512-5.201,1.424-6.582,3.39c-1.714,2.439,2.422,3.985,2.422,2.775c0-2.88-9.193-1.926-10.204-1.544
				c-4.158,1.568,0.373,4.955,2.109,3.899c-1.625,0.988-15.964-4.042-15.964,3.021c0,8.016,19.08,1.781,12.566-0.471
				c3.188-0.561,21.396-1.005,17.471,6.484c-3.412-1.637-29.663-3.666-22.862,6.208c5.801,8.422,10.449-0.737,10.449,10.832
				c0,8.404,0,16.808,0,25.211C1.601,88.882-0.586,95.749,5.534,94.03z"/>
		</g>
	</g>
</g>
</svg>
